<mxfile host="app.diagrams.net" modified="2024-02-19T13:12:26.552Z" agent="Mozilla/5.0 (X11; Linux x86_64) AppleWebKit/537.36 (KHTML, like Gecko) Chrome/121.0.0.0 Safari/537.36" version="23.0.2" etag="feVt7oQT0dbzj1XlrZlC" type="github">
  <diagram name="Page-1" id="zxKUgsPqZ8tgL6Mbedu_">
    <mxGraphModel>
      <root>
        <mxCell id="0" />
        <mxCell id="1" parent="0" />
      </root>
    </mxGraphModel>
  </diagram>
</mxfile>
